<?xml version="1.0" standalone="no"?>
<!DOCTYPE svg PUBLIC "-//W3C//DTD SVG 20010904//EN"
 "http://www.w3.org/TR/2001/REC-SVG-20010904/DTD/svg10.dtd">
<svg version="1.0" xmlns="http://www.w3.org/2000/svg"
 width="560.000000pt" height="560.000000pt" viewBox="0 0 560.000000 560.000000"
 preserveAspectRatio="xMidYMid meet">

<g transform="translate(0.000000,560.000000) scale(0.100000,-0.100000)"
fill="#000000" stroke="none">
<path d="M3034 4445 c-337 -52 -561 -231 -645 -515 -18 -64 -22 -107 -26 -292
l-5 -218 -219 0 -219 0 0 -315 0 -315 220 0 220 0 0 -830 0 -830 330 0 330 0
0 830 0 830 294 0 295 0 6 43 c5 39 65 573 65 583 0 2 -133 4 -296 4 l-295 0
3 185 c3 161 5 187 21 202 16 16 45 18 292 21 l275 3 0 314 0 315 -282 -1
c-173 -1 -315 -6 -364 -14z"/>
</g>
</svg>
