<svg width="48" height="48" viewBox="0 0 48 48" fill="none" xmlns="http://www.w3.org/2000/svg">
<path d="M13.3125 31.7475L27.06 41.1525C27.6598 41.5607 28.3482 41.8199 29.0683 41.9086C29.7883 41.9973 30.5191 41.9129 31.2 41.6625L40.245 38.34C40.6649 38.1831 41.1093 38.1019 41.5575 38.1H43.4025V27.495H41.4075C40.805 27.4947 40.2101 27.6306 39.6675 27.8925L34.3425 30.4575C33.8265 30.7044 33.2643 30.8398 32.6925 30.855L26.4825 31.005C26.0072 31.0113 25.5481 31.1787 25.1803 31.4798C24.8124 31.7808 24.5576 32.1978 24.4575 32.6625C24.4342 32.7813 24.4192 32.9016 24.4125 33.0225L15.2775 28.5225C14.8443 28.2899 14.344 28.2144 13.8614 28.3087C13.3788 28.403 12.9438 28.6614 12.63 29.04C11.85 30.4125 12.57 31.2225 13.3125 31.7475Z" fill="#F8C824"/>
<path d="M43.4025 37.5V38.1075H41.565C41.1143 38.1092 40.6675 38.1905 40.245 38.3475L31.1925 41.67C30.5105 41.9163 29.7799 41.9978 29.0604 41.9079C28.3409 41.818 27.6529 41.5591 27.0525 41.1525L13.3125 31.7475C12.9743 31.5697 12.6987 31.2924 12.5231 30.9531C12.3474 30.6138 12.28 30.2288 12.33 29.85C12.4874 30.3844 12.8375 30.8414 13.3125 31.1325L27.0525 40.5C27.6515 40.9095 28.3393 41.1707 29.0592 41.262C29.779 41.3533 30.5103 41.272 31.1925 41.025L40.245 37.7025C40.6698 37.5582 41.1165 37.4897 41.565 37.5H43.4025Z" fill="#F4D398"/>
<path d="M24.405 33.165C24.4093 33.4464 24.4699 33.7241 24.5832 33.9818C24.6966 34.2394 24.8604 34.4717 25.065 34.665C25.268 34.8458 25.5057 34.9836 25.7635 35.07C26.0213 35.1564 26.294 35.1895 26.565 35.1675H31.56V34.5H26.5725C26.3021 34.5218 26.0301 34.4892 25.7724 34.4042C25.5148 34.3191 25.2768 34.1834 25.0725 34.005C24.7356 33.6826 24.5142 33.2583 24.4425 32.7975C24.4165 32.9182 24.404 33.0415 24.405 33.165Z" fill="#F4D398"/>
<path d="M43.6125 39.0975H47.3175C47.6944 39.0975 48 38.7919 48 38.415V27.2025C48 26.8255 47.6944 26.52 47.3175 26.52H43.6125C43.2356 26.52 42.93 26.8255 42.93 27.2025V38.415C42.93 38.7919 43.2356 39.0975 43.6125 39.0975Z" fill="#EA0028"/>
<path d="M33.99 20.25C33.99 21.505 33.6179 22.7317 32.9207 23.7751C32.2235 24.8186 31.2325 25.6318 30.0731 26.112C28.9137 26.5923 27.638 26.7179 26.4071 26.4731C25.1763 26.2283 24.0458 25.624 23.1584 24.7366C22.271 23.8493 21.6667 22.7187 21.4219 21.4879C21.1771 20.2571 21.3027 18.9813 21.783 17.8219C22.2632 16.6625 23.0765 15.6716 24.1199 14.9744C25.1633 14.2772 26.3901 13.905 27.645 13.905C29.3278 13.905 30.9417 14.5735 32.1316 15.7634C33.3215 16.9534 33.99 18.5672 33.99 20.25Z" fill="#F8C824"/>
<path d="M32.8725 20.25C32.8725 21.2884 32.5646 22.3034 31.9877 23.1667C31.4108 24.0301 30.5909 24.703 29.6316 25.1004C28.6723 25.4977 27.6167 25.6017 26.5983 25.3991C25.5799 25.1966 24.6444 24.6965 23.9102 23.9623C23.176 23.2281 22.6759 22.2926 22.4734 21.2742C22.2708 20.2558 22.3748 19.2002 22.7721 18.2409C23.1695 17.2816 23.8424 16.4617 24.7058 15.8848C25.5691 15.3079 26.5841 15 27.6225 15C29.0149 15 30.3502 15.5531 31.3348 16.5377C32.3194 17.5223 32.8725 18.8576 32.8725 20.25Z" fill="#F8C824"/>
<path d="M29.325 21.375C29.3246 21.576 29.2838 21.775 29.205 21.96C29.1206 22.1332 29.0004 22.2865 28.8525 22.41C28.6905 22.5436 28.5048 22.6454 28.305 22.71C28.0627 22.7906 27.8102 22.8361 27.555 22.845L27.465 23.715C27.4682 23.7298 27.4682 23.7451 27.465 23.76C27.465 23.76 27.465 23.76 27.4275 23.7975H27.3525H27.225H27.075H26.985C26.9726 23.8001 26.9599 23.8001 26.9475 23.7975C26.94 23.7782 26.94 23.7568 26.9475 23.7375L27.0375 22.8675C26.9162 22.856 26.7959 22.836 26.6775 22.8075L26.385 22.725L26.1675 22.635C26.1181 22.6122 26.0726 22.5818 26.0325 22.545C26.0063 22.5122 25.9882 22.4736 25.98 22.4325C25.9709 22.3703 25.9709 22.3071 25.98 22.245C25.9759 22.1951 25.9759 22.1449 25.98 22.095C25.9712 22.0656 25.9712 22.0343 25.98 22.005C25.9737 21.988 25.9737 21.9694 25.98 21.9525C26.0018 21.9444 26.0257 21.9444 26.0475 21.9525C26.102 21.9584 26.1539 21.9791 26.1975 22.0125L26.445 22.14C26.5719 22.1913 26.7022 22.2339 26.835 22.2675C27.0144 22.3093 27.1982 22.3295 27.3825 22.3275C27.6892 22.3488 27.9946 22.2698 28.2525 22.1025C28.3411 22.0511 28.4183 21.982 28.4792 21.8997C28.5401 21.8173 28.5835 21.7233 28.6067 21.6235C28.6298 21.5237 28.6323 21.4202 28.614 21.3195C28.5957 21.2187 28.5569 21.1227 28.5 21.0375C28.4213 20.929 28.3219 20.8372 28.2075 20.7675C28.0788 20.6881 27.9432 20.6203 27.8025 20.565L27.345 20.4C27.1875 20.3475 27.03 20.28 26.88 20.2125C26.734 20.1402 26.5979 20.0494 26.475 19.9425C26.3595 19.8287 26.2633 19.697 26.19 19.5525C26.1165 19.3716 26.0808 19.1776 26.085 18.9825C26.0837 18.8108 26.1142 18.6405 26.175 18.48C26.2382 18.3271 26.3327 18.1891 26.4525 18.075C26.5858 17.9485 26.7442 17.8514 26.9175 17.79C27.1288 17.7097 27.3517 17.6642 27.5775 17.655L27.6525 16.845C27.6515 16.8275 27.6515 16.81 27.6525 16.7925C27.6525 16.7925 27.6525 16.7925 27.6525 16.755H27.7275H28.0125C28.0396 16.7486 28.0679 16.7486 28.095 16.755C28.095 16.755 28.095 16.755 28.095 16.8C28.0991 16.8172 28.0991 16.8352 28.095 16.8525L28.0125 17.655C28.0961 17.6634 28.1788 17.6784 28.26 17.7L28.5075 17.7675C28.5772 17.7891 28.645 17.8167 28.71 17.85C28.7572 17.8693 28.8005 17.8973 28.8375 17.9325L28.89 17.9925V18.0525C28.89 18.0525 28.89 18.105 28.89 18.135C28.8937 18.1724 28.8937 18.2101 28.89 18.2475C28.8941 18.2924 28.8941 18.3376 28.89 18.3825C28.8957 18.4097 28.8957 18.4378 28.89 18.465C28.8939 18.4823 28.8939 18.5002 28.89 18.5175H28.8375C28.7887 18.5119 28.7422 18.4938 28.7025 18.465L28.455 18.3525L28.1175 18.24C27.9783 18.202 27.8343 18.1843 27.69 18.1875C27.5333 18.1833 27.3768 18.201 27.225 18.24C27.1139 18.27 27.0096 18.3209 26.9175 18.39C26.842 18.4492 26.7826 18.5266 26.745 18.615C26.7091 18.7057 26.6913 18.8025 26.6925 18.9C26.6865 19.0434 26.7258 19.1852 26.805 19.305C26.8809 19.4132 26.9778 19.5051 27.09 19.575C27.2192 19.6562 27.3577 19.7217 27.5025 19.77L27.9675 19.935C28.125 19.995 28.2825 20.055 28.4325 20.13C28.5831 20.195 28.7223 20.2836 28.845 20.3925C28.9622 20.5047 29.0587 20.6367 29.13 20.7825C29.2417 20.9614 29.3086 21.1647 29.325 21.375Z" fill="white"/>
<path d="M16.11 17.79H22.9875C23.5894 17.7779 24.1735 17.9938 24.6228 18.3944C25.0722 18.795 25.3533 19.3507 25.41 19.95C25.4368 20.2799 25.3916 20.6117 25.2777 20.9225C25.1637 21.2333 24.9837 21.5156 24.75 21.75C24.5387 21.9676 24.2857 22.1402 24.006 22.2575C23.7263 22.3748 23.4258 22.4343 23.1225 22.4325H17.3025C16.9452 22.4314 16.5893 22.4794 16.245 22.575C14.5875 23.0475 8.91001 24.3 4.51501 20.3625V10.23H5.19001C6.05746 10.2285 6.91707 10.0658 7.72501 9.75002L16.0275 6.37502C17.1928 5.95116 18.466 5.92749 19.6463 6.30777C20.8265 6.68805 21.8464 7.4506 22.545 8.47502C23.4825 9.84752 25.3125 12.225 26.445 14.0175H26.4C25.0904 14.2777 23.8962 14.9443 22.9875 15.9225H22.9425C21.4425 14.7225 19.4925 13.3125 18.9975 12.2625C18.7518 14.3987 17.7231 16.3681 16.11 17.79Z" fill="#F8C824"/>
<path d="M25.41 19.95C25.4368 20.2799 25.3916 20.6117 25.2777 20.9225C25.1637 21.2332 24.9837 21.5156 24.75 21.75C24.5387 21.9676 24.2857 22.1402 24.006 22.2575C23.7263 22.3748 23.4258 22.4343 23.1225 22.4325H17.3025C16.9452 22.4314 16.5893 22.4794 16.245 22.575C14.5875 23.0475 8.91001 24.3 4.51501 20.3625V19.6875C8.91001 23.625 14.5875 22.38 16.245 21.9C16.589 21.8018 16.9448 21.7514 17.3025 21.75H23.1075C23.4155 21.75 23.7202 21.6867 24.0027 21.5642C24.2852 21.4416 24.5396 21.2623 24.75 21.0375C25.1079 20.6851 25.3376 20.2231 25.4025 19.725L25.41 19.95Z" fill="#F4D398"/>
<path d="M3.99 9.42749H0.8775C0.39287 9.42749 0 9.82036 0 10.305V20.7C0 21.1846 0.39287 21.5775 0.8775 21.5775H3.99C4.47463 21.5775 4.8675 21.1846 4.8675 20.7V10.305C4.8675 9.82036 4.47463 9.42749 3.99 9.42749Z" fill="#005708"/>
<path d="M3.99 8.7525H0.8775C0.39287 8.7525 0 9.14537 0 9.63V20.025C0 20.5096 0.39287 20.9025 0.8775 20.9025H3.99C4.47463 20.9025 4.8675 20.5096 4.8675 20.025V9.63C4.8675 9.14537 4.47463 8.7525 3.99 8.7525Z" fill="#005708"/>
</svg>
