<svg width="49" height="48" viewBox="0 0 49 48" fill="none" xmlns="http://www.w3.org/2000/svg">
<path d="M29.873 12.825C32.7905 15.756 37.5275 15.762 40.4525 12.837L46.1495 6.40348L45.014 4.96498C42.8465 2.21998 38.7725 1.97398 36.2915 4.43998C35.774 4.89148 34.7885 5.25898 34.1015 5.25898H27.8915C27.044 5.25898 26.201 5.37598 25.385 5.60398L18.7085 7.47898L12.0425 11.1795C11.3195 11.685 12.476 14.9295 15.875 13.629C17.6705 12.939 20.0075 12.183 21.0215 11.478L26.1005 10.56C26.7575 10.3605 27.686 10.5975 28.166 11.0865L29.873 12.825Z" fill="white"/>
<path d="M25.394 5.60097L18.71 7.47747L12.0425 11.1795C11.3195 11.685 12.476 14.9295 15.875 13.629C17.6705 12.939 20.0075 12.183 21.0215 11.478L26.1005 10.56C26.7575 10.3605 27.686 10.5975 28.166 11.0865L29.873 12.8235C30.497 13.449 31.2125 13.914 31.967 14.274C34.295 14.694 37.331 13.9245 39.131 12.123L45.59 5.62197L45.044 4.93947C42.857 2.20197 38.777 1.96797 36.293 4.43847C35.7755 4.88997 34.79 5.25747 34.1045 5.25747H27.8855C27.0425 5.25747 26.2055 5.37447 25.394 5.60097Z" fill="#F8C824"/>
<path d="M22.3805 10.5255H31.6055L31.442 14.271H26.786C22.3805 14.271 22.3805 11.1495 22.3805 10.5255Z" fill="#F8C824"/>
<path d="M19.2995 35.193C16.382 32.2605 11.645 32.256 8.71999 35.181L3.02299 41.6145L4.15849 43.053C6.32449 45.7995 10.4 46.044 12.881 43.578C13.3985 43.128 14.384 42.759 15.071 42.759H21.281C22.1285 42.759 22.9715 42.6435 23.7875 42.414L30.464 40.5405L37.1315 36.8385C37.8545 36.333 36.698 33.0885 33.299 34.3875C31.5035 35.0775 29.1665 35.8335 28.1525 36.5385L23.0735 37.4565C22.4165 37.656 21.488 37.419 21.008 36.93L19.2995 35.193Z" fill="white"/>
<path d="M23.7785 42.4155L30.464 40.5405L37.1315 36.8385C37.8545 36.333 36.698 33.0885 33.299 34.3875C31.5035 35.0775 29.1665 35.8335 28.1525 36.5385L23.0735 37.4565C22.4165 37.656 21.488 37.419 21.008 36.93L19.301 35.193C18.677 34.566 17.9615 34.101 17.207 33.7425C14.879 33.3225 11.843 34.092 10.043 35.8935L3.584 42.393L4.13 43.0755C6.317 45.8145 10.397 46.047 12.881 43.5765C13.3985 43.1265 14.384 42.7575 15.0695 42.7575H21.2885C22.13 42.759 22.9685 42.6435 23.7785 42.4155Z" fill="#F8C824"/>
<path d="M26.792 37.491H17.567L17.7305 33.747H22.3865C26.792 33.747 26.792 36.867 26.792 37.491Z" fill="#F8C824"/>
<path d="M28.0475 17.25C26.573 17.25 25.271 17.9955 24.5 19.1295C23.7275 17.9955 22.427 17.25 20.9525 17.25C18.584 17.25 16.6655 19.1685 16.6655 21.537C16.6655 26.562 24.5 30.75 24.5 30.75C24.5 30.75 32.3345 26.562 32.3345 21.537C32.3345 19.1685 30.416 17.25 28.0475 17.25Z" fill="#EA0028"/>
<path d="M28.0475 17.25C26.573 17.25 25.271 17.9955 24.5 19.1295C23.7275 17.9955 22.427 17.25 20.9525 17.25C18.584 17.25 16.6655 19.1685 16.6655 21.537C16.6655 26.562 24.5 30.75 24.5 30.75C24.5 30.75 32.3345 26.562 32.3345 21.537C32.3345 19.1685 30.416 17.25 28.0475 17.25Z" fill="white"/>
<path d="M32.315 21.105C32.3045 21.066 32.291 21.03 32.2805 20.991C31.541 19.698 30.1655 18.816 28.5695 18.816C27.4655 18.816 26.4605 19.233 25.7 19.9185C25.322 20.2605 24.734 20.271 24.356 19.929C23.6255 19.266 22.6655 18.8505 21.608 18.8175C20.378 18.7815 19.2365 19.377 18.3965 20.277C17.18 21.582 17.0615 22.809 17.2715 23.9865C19.0955 27.852 24.5 30.75 24.5 30.75C24.5 30.75 32.7875 26.3205 32.315 21.105Z" fill="#EA0028"/>
<path d="M31.757 19.425C31.781 19.605 31.8125 19.7835 31.8125 19.9695C31.8125 22.374 30.02 24.5865 28.1495 26.2395C25.757 28.3545 22.175 28.3365 19.7885 26.214C18.59 25.1475 17.4245 23.85 16.7495 22.4205C17.57 27.0435 24.5 30.75 24.5 30.75C24.5 30.75 32.3345 26.562 32.3345 21.537C32.3345 20.7645 32.114 20.0505 31.757 19.425Z" fill="#F27670"/>
<path d="M24.5 31.5C24.3785 31.5 24.257 31.47 24.146 31.4115C23.81 31.2315 15.9155 26.9505 15.9155 21.537C15.9155 18.759 18.1745 16.5 20.9525 16.5C22.295 16.5 23.5655 17.034 24.5 17.9625C25.436 17.034 26.7065 16.5 28.0475 16.5C30.8255 16.5 33.0845 18.759 33.0845 21.537C33.0845 26.9505 25.19 31.2315 24.854 31.4115C24.743 31.47 24.6215 31.5 24.5 31.5ZM20.9525 18C19.0025 18 17.4155 19.587 17.4155 21.537C17.4155 25.476 23.021 29.0205 24.5 29.8875C25.979 29.0205 31.5845 25.4775 31.5845 21.537C31.5845 19.587 29.9975 18 28.0475 18C26.876 18 25.781 18.5805 25.1195 19.5525C24.839 19.962 24.158 19.962 23.879 19.5525C23.219 18.5805 22.124 18 20.9525 18ZM26.792 38.241H17.7425C17.3285 38.241 16.9925 37.905 16.9925 37.491C16.9925 37.077 17.3285 36.741 17.7425 36.741H25.976C25.6895 35.2515 24.485 34.497 22.3865 34.497H17.255C16.841 34.497 16.505 34.161 16.505 33.747C16.505 33.333 16.841 32.997 17.255 32.997H22.3865C25.664 32.997 27.5435 34.635 27.5435 37.491C27.542 37.9065 27.2075 38.241 26.792 38.241Z" fill="#005708"/>
<path d="M2.837 41.8485C2.6465 41.8485 2.4545 41.7765 2.3075 41.6295C2.0135 41.3385 2.012 40.863 2.3045 40.569L8.1875 34.65C10.652 32.1885 14.411 31.542 17.5475 33.0405C17.921 33.219 18.0785 33.666 17.9 34.041C17.7215 34.4145 17.2745 34.5735 16.8995 34.3935C14.3375 33.168 11.2625 33.696 9.2495 35.709L3.368 41.6265C3.221 41.775 3.029 41.8485 2.837 41.8485ZM10.7465 46.527C10.5515 46.527 10.3565 46.452 10.2095 46.3005C9.9215 46.0035 9.9275 45.5295 10.2245 45.24L12.389 43.1325C13.115 42.4245 14.075 42.036 15.089 42.036H21.29C22.064 42.036 22.832 41.9295 23.576 41.721L30.1745 39.8445L36.5885 36.2835C36.578 36.0765 36.4415 35.6355 36.053 35.286C35.4695 34.7595 34.6085 34.692 33.566 35.0895C33.14 35.253 32.6825 35.4225 32.219 35.592C30.839 36.0975 29.276 36.672 28.58 37.155C28.4915 37.2165 28.3925 37.2585 28.286 37.278L26.8265 37.542C26.4155 37.6125 26.0285 37.344 25.955 36.9375C25.8815 36.5295 26.1515 36.1395 26.5595 36.066L27.8675 35.8305C28.748 35.2695 30.2495 34.719 31.703 34.185C32.159 34.0185 32.609 33.852 33.029 33.69C35.486 32.754 37.1045 33.8445 37.751 35.061C38.267 36.0315 38.189 37.017 37.562 37.455L30.8285 41.1975C30.7775 41.226 30.725 41.247 30.6695 41.2635L23.984 43.1655C23.1065 43.413 22.2005 43.5375 21.29 43.5375H15.0875C14.4665 43.5375 13.8785 43.776 13.433 44.2095L11.27 46.314C11.1245 46.4565 10.9355 46.527 10.7465 46.527ZM31.9175 15.021H26.786C23.5085 15.021 21.629 13.383 21.629 10.5255C21.629 10.1115 21.965 9.77551 22.379 9.77551H31.4285C31.8425 9.77551 32.1785 10.1115 32.1785 10.5255C32.1785 10.9395 31.8425 11.2755 31.4285 11.2755H23.195C23.4815 12.7665 24.686 13.521 26.7845 13.521H31.916C32.33 13.521 32.666 13.857 32.666 14.271C32.666 14.685 32.333 15.021 31.9175 15.021Z" fill="#005708"/>
<path d="M35.1575 15.7755C33.959 15.7755 32.7515 15.5145 31.625 14.976C31.2515 14.7975 31.094 14.3505 31.2725 13.9755C31.4525 13.602 31.898 13.4445 32.273 13.623C34.8365 14.8485 37.9115 14.319 39.923 12.3075L45.806 6.38998C46.0985 6.09748 46.5725 6.09448 46.8665 6.38698C47.1605 6.67948 47.162 7.15348 46.8695 7.44748L40.9835 13.365C39.407 14.943 37.295 15.7755 35.1575 15.7755ZM14.3795 14.6835C12.9035 14.6835 11.8985 13.8555 11.4215 12.96C10.907 11.988 10.985 11.0025 11.612 10.5645L18.3455 6.82198C18.3965 6.79348 18.449 6.77248 18.5045 6.75598L25.19 4.85398C26.069 4.60798 26.9735 4.48348 27.884 4.48348H34.085C34.706 4.48348 35.294 4.24498 35.7395 3.80998L37.9025 1.70248C38.198 1.41448 38.675 1.41898 38.963 1.71598C39.2525 2.01298 39.2465 2.48848 38.9495 2.77648L36.785 4.88398C36.0575 5.59348 35.0975 5.98198 34.0835 5.98198H27.8825C27.11 5.98198 26.3405 6.08698 25.5965 6.29548L18.9995 8.17498L12.5855 11.736C12.596 11.943 12.7325 12.384 13.121 12.7335C13.706 13.263 14.5655 13.3275 15.608 12.9285C16.031 12.7665 16.4855 12.5985 16.946 12.4305C18.329 11.922 19.898 11.3475 20.5955 10.863C20.684 10.8015 20.783 10.7595 20.8895 10.74L22.349 10.476C22.757 10.404 23.1455 10.6725 23.2205 11.0805C23.294 11.4885 23.024 11.8785 22.616 11.952L21.308 12.1875C20.426 12.75 18.92 13.302 17.462 13.8375C17.009 14.004 16.562 14.1675 16.145 14.328C15.4985 14.577 14.909 14.6835 14.3795 14.6835ZM13.9115 30.354C13.67 30.354 13.433 30.237 13.2875 30.0225C11.7905 27.795 11 25.194 11 22.5C11 20.5635 11.402 18.693 12.194 16.9395C12.365 16.563 12.809 16.3935 13.187 16.5645C13.5635 16.7355 13.7315 17.1795 13.562 17.5575C12.857 19.116 12.5 20.778 12.5 22.5C12.5 24.8955 13.2035 27.207 14.5325 29.187C14.7635 29.5305 14.672 29.997 14.3285 30.228C14.201 30.3135 14.0555 30.354 13.9115 30.354ZM34.2185 31.5015C34.0475 31.5015 33.875 31.443 33.734 31.323C33.419 31.0545 33.38 30.582 33.6485 30.2655C35.4875 28.1025 36.5 25.344 36.5 22.5C36.5 21.1875 36.29 19.899 35.8745 18.6675C35.7425 18.2745 35.9525 17.85 36.3455 17.718C36.743 17.586 37.163 17.7975 37.295 18.189C37.763 19.575 38 21.0255 38 22.5C38 25.6995 36.86 28.803 34.79 31.2375C34.643 31.4115 34.4315 31.5015 34.2185 31.5015Z" fill="#005708"/>
</svg>
